<?xml version="1.0" standalone="no"?>
<!DOCTYPE svg PUBLIC "-//W3C//DTD SVG 20010904//EN"
 "http://www.w3.org/TR/2001/REC-SVG-20010904/DTD/svg10.dtd">
<svg version="1.0" xmlns="http://www.w3.org/2000/svg"
 width="860.000000pt" height="900.000000pt" viewBox="0 0 860.000000 900.000000"
 preserveAspectRatio="xMidYMid meet">

<g transform="translate(0.000000,900.000000) scale(0.100000,-0.100000)"
fill="#000000" stroke="none">
<path d="M4065 8594 c-22 -2 -91 -9 -153 -14 -153 -14 -382 -54 -553 -96
-1340 -328 -2437 -1369 -2863 -2714 -549 -1734 80 -3620 1553 -4654 270 -189
647 -384 935 -482 120 -41 211 -29 269 35 20 22 40 57 46 78 12 43 14 278 4
565 l-6 195 -61 -13 c-484 -101 -918 23 -1148 328 -66 87 -93 137 -154 283
-52 125 -105 221 -175 315 -51 70 -165 185 -214 215 -236 148 -245 270 -20
268 110 0 222 -39 336 -115 111 -74 202 -171 296 -316 126 -195 219 -286 361
-357 189 -95 435 -101 682 -18 111 37 113 40 129 123 28 152 93 299 181 408
l49 61 -32 5 c-18 3 -66 10 -107 17 -529 80 -894 241 -1171 518 -257 257 -399
565 -471 1018 -18 116 -22 181 -22 413 -1 247 1 286 21 385 56 273 164 505
330 710 l49 60 -24 75 c-41 130 -54 255 -49 445 6 188 26 304 80 465 38 111
44 115 172 105 230 -19 514 -137 857 -357 l106 -69 99 25 c557 141 1219 143
1779 5 l121 -30 134 86 c360 230 745 371 929 340 37 -6 39 -9 64 -78 74 -206
108 -474 87 -680 -11 -102 -43 -259 -66 -317 -3 -10 14 -40 46 -80 170 -211
279 -450 331 -725 19 -104 22 -151 22 -350 -2 -770 -242 -1312 -720 -1631
-245 -163 -616 -288 -996 -336 -54 -6 -98 -15 -98 -18 0 -4 12 -17 26 -31 60
-55 136 -187 172 -299 56 -171 55 -152 61 -916 l6 -710 28 -43 c54 -81 161
-102 293 -57 309 105 705 314 992 523 1161 845 1795 2237 1677 3685 -109 1337
-842 2523 -1980 3205 -480 287 -1033 472 -1600 533 -102 11 -567 21 -640 14z
m605 -299 c1275 -136 2361 -900 2943 -2070 190 -382 310 -778 373 -1235 21
-156 30 -635 15 -811 -77 -878 -421 -1665 -1010 -2304 -291 -317 -679 -608
-1076 -808 -72 -36 -263 -119 -302 -131 l-21 -7 -5 588 c-5 633 -9 693 -62
874 -13 46 -21 87 -17 90 4 3 54 18 112 34 415 109 786 332 1023 614 272 324
418 696 478 1216 17 144 18 545 1 655 -44 296 -143 560 -297 790 l-64 95 14
66 c54 255 40 563 -39 851 -30 112 -103 308 -119 325 -7 6 -50 24 -97 39 -75
24 -100 27 -210 27 -148 -1 -258 -22 -435 -84 -140 -48 -350 -151 -512 -249
l-114 -69 -107 24 c-263 59 -522 85 -842 85 -319 0 -579 -26 -841 -85 l-107
-24 -132 79 c-361 217 -662 322 -925 323 -112 1 -127 -2 -219 -34 l-99 -34
-39 -104 c-141 -376 -181 -748 -113 -1070 l14 -70 -65 -98 c-225 -335 -327
-728 -310 -1188 24 -653 198 -1151 526 -1507 39 -43 69 -78 65 -78 -3 0 -25
13 -48 29 -223 152 -533 195 -732 101 -76 -36 -140 -99 -174 -170 -22 -47 -26
-68 -26 -145 1 -101 18 -147 93 -242 42 -52 165 -157 216 -183 44 -23 146
-139 199 -227 26 -44 70 -135 97 -202 56 -140 93 -208 161 -298 27 -35 45 -63
42 -63 -13 0 -277 267 -362 365 -530 613 -846 1365 -921 2190 -15 165 -12 553
5 723 117 1132 695 2125 1613 2769 510 358 1150 590 1777 646 117 10 552 5
675 -8z m-2330 -5504 c177 -118 378 -207 629 -278 69 -20 127 -37 129 -39 2
-1 -5 -28 -14 -59 -21 -66 -26 -69 -146 -86 -231 -32 -393 60 -547 311 -35 57
-89 132 -119 168 -30 35 -48 61 -41 56 8 -5 57 -38 109 -73z m195 -1569 c130
-32 214 -42 358 -42 l127 0 0 -125 c0 -73 -4 -125 -10 -125 -17 0 -222 91
-359 160 -123 61 -342 188 -365 210 -5 5 28 -5 75 -24 46 -18 125 -42 174 -54z"/>
</g>
</svg>
